<?xml version="1.0" standalone="no"?>
<!DOCTYPE svg PUBLIC "-//W3C//DTD SVG 20010904//EN"
 "http://www.w3.org/TR/2001/REC-SVG-20010904/DTD/svg10.dtd">
<svg version="1.0" xmlns="http://www.w3.org/2000/svg"
 width="500.000000pt" height="500.000000pt" viewBox="0 0 500.000000 500.000000"
 preserveAspectRatio="xMidYMid meet">

<g transform="translate(0.000000,500.000000) scale(0.100000,-0.100000)"
fill="#000000" stroke="none">
<path d="M1480 3376 c0 -251 -4 -456 -9 -456 -4 0 -16 -25 -26 -56 -20 -64
-15 -126 16 -208 14 -38 19 -76 19 -149 0 -54 -3 -97 -7 -95 -167 83 -166 83
-243 83 -83 -1 -283 -56 -227 -63 15 -2 71 -32 124 -68 134 -90 172 -99 332
-84 l126 11 110 -55 c80 -41 129 -74 180 -121 39 -36 63 -64 55 -61 -8 2 -58
12 -110 21 -52 9 -106 25 -120 34 -65 46 -92 54 -162 48 -119 -10 -205 -69
-254 -172 -22 -46 -31 -95 -18 -95 3 0 22 14 43 31 39 31 184 94 301 131 36
11 70 24 77 30 7 6 27 4 55 -5 24 -8 87 -22 140 -32 95 -17 98 -18 155 -72 41
-38 51 -52 35 -48 -12 4 -35 18 -49 31 -40 37 -123 57 -212 52 -64 -4 -88 -11
-151 -43 -85 -45 -191 -138 -175 -153 6 -6 48 -18 94 -26 183 -35 258 -16 416
104 l41 30 46 -16 c35 -12 56 -28 87 -68 49 -63 141 -216 141 -233 0 -7 5 -13
10 -13 14 0 13 4 -21 73 -49 96 -106 175 -189 262 -86 89 -130 150 -161 222
-17 40 -20 60 -15 118 21 231 23 203 -28 312 -25 55 -46 108 -46 119 0 10 -5
26 -10 34 -14 23 -30 0 -46 -67 -33 -140 -4 -279 95 -453 11 -19 33 -63 50
-98 l30 -63 -37 30 c-88 69 -183 165 -226 229 l-47 68 -4 135 c-3 74 -7 328
-9 564 -5 422 -4 429 13 375 40 -125 106 -219 187 -266 31 -18 71 -29 143 -38
183 -24 216 -67 265 -349 14 -78 34 -167 44 -197 18 -52 18 -60 4 -149 -41
-250 65 -521 268 -690 78 -65 222 -134 324 -157 151 -32 346 -5 494 70 83 42
181 115 216 160 25 33 26 40 25 153 l0 118 -19 -73 c-92 -352 -423 -517 -728
-363 -212 107 -389 373 -422 634 -5 44 -8 82 -7 84 2 1 23 -7 47 -18 68 -33
260 -63 260 -40 0 5 -17 11 -38 15 -71 11 -163 116 -222 254 l-23 52 28 75
c30 84 106 197 161 243 58 48 144 90 220 108 79 18 215 16 222 -4 2 -7 17 -12
34 -12 45 0 148 -54 212 -112 59 -53 125 -133 169 -208 l27 -45 0 106 c0 92
-3 110 -20 132 -28 36 -162 124 -210 138 -22 7 -40 15 -40 18 0 8 109 32 173
38 30 3 67 -1 99 -12 55 -18 53 -18 62 10 5 16 -2 25 -29 39 -18 10 -44 29
-56 42 l-23 24 32 -6 c19 -4 32 -2 32 4 0 17 -123 163 -187 222 -33 31 -87 69
-122 85 -51 25 -65 37 -80 70 -10 22 -30 51 -44 64 -34 31 -103 39 -145 17
-17 -9 -46 -16 -64 -16 -25 0 -29 -3 -18 -10 13 -9 13 -11 0 -20 -12 -8 -11
-10 8 -10 25 0 25 0 27 -195 2 -164 38 -240 145 -304 l35 -21 -72 0 c-228 0
-470 -119 -605 -299 l-25 -34 -47 96 c-69 140 -153 227 -261 268 l-30 11 60
17 c125 36 198 90 242 179 24 49 28 69 28 142 0 69 -5 93 -23 127 -48 91 -145
154 -292 189 -60 14 -131 19 -352 22 l-278 4 0 -456z m441 434 c167 -16 256
-66 309 -174 32 -64 33 -68 28 -168 -6 -121 -35 -198 -96 -248 -129 -106 -306
-67 -412 92 -61 92 -91 198 -97 350 -3 69 -3 133 0 142 8 19 112 21 268 6z
m-219 -1511 l44 -65 -89 40 -88 41 41 3 c36 3 40 6 40 29 0 31 -3 34 52 -48z"/>
<path d="M1080 1215 c0 -147 19 -176 22 -32 1 50 2 107 3 125 0 20 -4 32 -12
32 -10 0 -13 -30 -13 -125z"/>
<path d="M1480 1246 c0 -111 3 -122 41 -141 40 -21 44 -18 12 9 -27 23 -28 29
-31 125 -2 56 -8 101 -13 101 -5 0 -9 -42 -9 -94z"/>
<path d="M1648 1315 c2 -14 6 -25 8 -25 2 0 4 11 4 25 0 14 -4 25 -9 25 -4 0
-6 -11 -3 -25z"/>
<path d="M1850 1215 c0 -104 2 -125 15 -125 13 0 15 21 15 125 0 104 -2 125
-15 125 -13 0 -15 -21 -15 -125z"/>
<path d="M2000 1215 c0 -104 2 -125 15 -125 13 0 15 21 15 125 0 104 -2 125
-15 125 -13 0 -15 -21 -15 -125z"/>
<path d="M2360 1333 c8 -3 25 -15 38 -26 12 -11 22 -15 22 -9 0 14 -40 42 -60
41 -13 0 -13 -1 0 -6z"/>
<path d="M2620 1215 c0 -104 2 -125 15 -125 13 0 15 21 15 125 0 104 -2 125
-15 125 -13 0 -15 -21 -15 -125z"/>
<path d="M3457 1326 c-8 -20 84 -236 100 -236 7 0 13 2 13 4 0 6 -100 240
-104 244 -2 1 -6 -4 -9 -12z"/>
<path d="M3760 1331 c0 -5 9 -7 20 -4 11 3 20 7 20 9 0 2 -9 4 -20 4 -11 0
-20 -4 -20 -9z"/>
<path d="M3842 1248 c-87 -163 -86 -160 -67 -156 22 4 151 248 131 248 -8 0
-36 -41 -64 -92z"/>
<path d="M1200 1310 c12 -22 4 -60 -14 -72 -8 -6 -8 -8 1 -8 34 0 56 63 31 88
-19 19 -30 14 -18 -8z"/>
<path d="M2742 1310 c10 -15 10 -27 1 -50 -10 -27 -10 -29 7 -20 24 13 31 45
13 69 -18 27 -37 28 -21 1z"/>
<path d="M3070 1315 c0 -18 77 -206 90 -219 27 -27 17 15 -26 118 -46 108 -64
137 -64 101z"/>
<path d="M2246 1289 c-46 -55 -29 -152 34 -184 42 -21 61 -19 24 4 -61 37 -83
143 -38 192 9 10 15 19 11 19 -3 0 -17 -14 -31 -31z"/>
<path d="M1206 1172 c13 -44 44 -82 67 -82 5 0 3 8 -5 18 -9 9 -25 36 -37 59
-29 59 -42 61 -25 5z"/>
<path d="M2758 1208 c16 -16 16 -80 0 -96 -8 -8 -9 -12 -1 -12 40 0 57 74 25
103 -21 19 -42 23 -24 5z"/>
<path d="M2300 1194 c0 -12 4 -14 13 -7 6 6 19 13 27 16 9 3 3 6 -12 6 -20 1
-28 -4 -28 -15z"/>
<path d="M2410 1160 c0 -46 2 -51 16 -40 18 16 16 81 -3 88 -9 2 -13 -11 -13
-48z"/>
<path d="M3890 1100 c-12 -8 -11 -10 8 -10 12 0 22 5 22 10 0 13 -11 13 -30 0z"/>
<path d="M2016 961 c18 -11 34 -25 37 -33 4 -9 6 -8 6 4 1 19 -35 48 -59 48
-8 0 -1 -9 16 -19z"/>
<path d="M2260 855 c0 -93 3 -125 13 -125 9 0 11 30 9 125 -2 69 -7 125 -13
125 -5 0 -9 -53 -9 -125z"/>
<path d="M2590 900 c0 -95 18 -146 55 -160 37 -14 37 -13 4 19 -28 28 -29 33
-29 125 0 79 -3 96 -15 96 -12 0 -15 -16 -15 -80z"/>
<path d="M2766 953 c10 -40 14 -41 14 -5 0 18 -5 32 -10 32 -6 0 -8 -11 -4
-27z"/>
<path d="M2970 855 c0 -93 3 -125 13 -125 9 0 12 32 12 125 0 94 -3 125 -12
125 -10 0 -13 -31 -13 -125z"/>
<path d="M3090 950 c12 -22 4 -60 -14 -72 -8 -6 -8 -8 1 -8 34 0 56 63 31 88
-19 19 -30 14 -18 -8z"/>
<path d="M1875 923 c-21 -32 -24 -98 -6 -131 12 -22 66 -62 85 -62 5 0 -3 9
-18 21 -51 40 -72 120 -45 171 17 31 4 32 -16 1z"/>
<path d="M3108 849 c6 -7 12 -29 12 -49 0 -20 -6 -42 -12 -49 -11 -11 -10 -13
2 -9 8 3 22 17 30 31 13 24 13 30 0 54 -8 14 -22 28 -30 31 -12 4 -13 2 -2 -9z"/>
<path d="M2380 745 c-10 -12 -10 -15 4 -15 9 0 16 7 16 15 0 8 -2 15 -4 15 -2
0 -9 -7 -16 -15z"/>
</g>
</svg>
